<svg width="20" height="20" viewBox="0 0 20 20" fill="none" xmlns="http://www.w3.org/2000/svg">
<path d="M8.62689 0.238744C3.8964 0.238744 0.0482788 4.08686 0.0482788 8.81735C0.0482788 13.5478 3.8964 17.396 8.62689 17.396C10.073 17.396 11.4946 17.0528 12.6956 16.391C12.7918 16.5068 12.8985 16.6135 13.0142 16.7097L15.4653 19.1607C15.6916 19.4154 15.9676 19.6211 16.2763 19.7652C16.585 19.9094 16.9199 19.9889 17.2604 19.9989C17.601 20.0089 17.94 19.9493 18.2566 19.8235C18.5733 19.6978 18.8609 19.5087 19.1018 19.2678C19.3427 19.0268 19.5318 18.7392 19.6576 18.4226C19.7833 18.1059 19.843 17.7669 19.833 17.4264C19.8229 17.0858 19.7434 16.7509 19.5993 16.4422C19.4551 16.1335 19.2494 15.8575 18.9947 15.6312L16.5437 13.1802C16.4243 13.0607 16.2929 12.954 16.1516 12.8616C16.8133 11.6605 17.23 10.2635 17.23 8.79284C17.23 4.06235 13.3819 0.214233 8.6514 0.214233L8.62689 0.238744ZM8.62689 2.68977C12.0338 2.68977 14.7545 5.41042 14.7545 8.81735C14.7545 10.435 14.1662 11.9302 13.1368 13.0331C13.1123 13.0576 13.0878 13.0821 13.0633 13.1067C12.9475 13.2029 12.8408 13.3095 12.7446 13.4253C11.6662 14.4057 10.1955 14.9694 8.60238 14.9694C5.19544 14.9694 2.4748 12.2488 2.4748 8.84186C2.4748 5.43493 5.19544 2.71428 8.60238 2.71428L8.62689 2.68977Z" fill="#939393"/>
</svg>
